<?xml version="1.0" encoding="iso-8859-1"?>
<!-- Generator: Adobe Illustrator 19.0.0, SVG Export Plug-In . SVG Version: 6.00 Build 0)  -->
<svg version="1.1" id="Layer_1" xmlns="http://www.w3.org/2000/svg" xmlns:xlink="http://www.w3.org/1999/xlink" x="0px" y="0px"
	 viewBox="0 0 512 512" style="enable-background:new 0 0 512 512;" xml:space="preserve">
<ellipse style="fill:#8460C8;" cx="215.227" cy="432.813" rx="63.8" ry="71.249"/>
<path style="opacity:0.08;enable-background:new    ;" d="M215.23,361.565c-25.306,0-47.17,16.457-57.481,40.311
	c11.645,13.943,28.231,22.672,46.649,22.672c0.143,0,0.283-0.011,0.424-0.012c7.817,29.478,32.233,50.991,61.162,50.991
	c0.105,0,0.208-0.008,0.313-0.008c7.99-11.901,12.726-26.684,12.726-42.704C279.023,393.464,250.462,361.565,215.23,361.565z"/>
<ellipse style="fill:#9C7CD3;" cx="282.412" cy="381.339" rx="63.8" ry="71.249"/>
<path style="opacity:0.08;enable-background:new    ;" d="M282.412,310.086c-27.809,0-51.448,19.88-60.182,47.603
	c11.375,19.546,31.085,32.484,53.514,32.484c27.809,0,51.448-19.88,60.182-47.604C324.551,323.024,304.841,310.086,282.412,310.086z
	"/>
<ellipse style="fill:#9C7CD3;" cx="298.981" cy="194.806" rx="63.8" ry="71.249"/>
<path style="fill:#00A155;" d="M354.086,144.36c0,0-1.042-6.888-4.632-14.361c11.531,1.703,22.669-2.126,22.669-2.126
	s-1.256-8.308-5.765-16.576c6.036-8.238,9.226-14.76,9.226-14.76s-5.851-4.314-15.02-8.83c0.194-9.45-2.548-17.442-2.548-17.442
	s-11.996,1.812-21.505,8.912c-5.103-1.079-10.446-1.717-15.877-1.63c1.432-4.64,2.289-9.375,2.734-14.044
	c10.375-6.86,16.145-18.659,16.145-18.659s-7.577-5.585-17.406-8.083c-1.776-10.278-4.346-17.281-4.346-17.281
	s-7.349,1.276-17.138,4.877c-7.077-7.263-15.703-11.032-15.703-11.032s-7.333,10.896-8.087,23.311
	c-3.821,2.72-7.493,5.83-10.795,9.39c-2.64-4.746-5.865-9.055-9.35-12.935c1.395-11.784-3.034-23.079-3.034-23.079
	s-8.292,1.621-16.379,6.514c-8.496-5.683-15.158-8.592-15.158-8.592s-4.053,6.023-8.169,15.37
	c-9.416,0.227-17.238,3.295-17.238,3.295s2.254,11.56,9.494,20.694c-8.267,0.627-14.753,3.169-14.753,3.169
	s3.687,18.881,16.76,27.447c10.394,31.319,52.461,40.455,52.461,40.455s28.946,31.863,61.266,25.205
	C335.892,150.608,354.086,144.36,354.086,144.36z"/>
<path style="fill:#006539;" d="M309.128,148.423c0,0-4.346-5.444-11.192-10.121c10.838-4.29,18.569-13.175,18.569-13.175
	s-5.242-6.567-13.282-11.472c1.109-10.152,0.61-17.395,0.61-17.395s-7.224-0.81-17.423-0.138
	c-4.557-8.281-10.927-13.831-10.927-13.831s-9.482,7.568-14.167,18.47c-4.959,1.617-9.905,3.736-14.565,6.526
	c-1.08-4.734-2.705-9.263-4.654-13.53c5.555-11.13,4.652-24.231,4.652-24.231s-9.354-1.05-19.116,1.702
	c-6.677-8.013-12.405-12.793-12.405-12.793s-5.727,4.779-12.404,12.793c-9.762-2.752-19.116-1.702-19.116-1.702
	s-0.903,13.102,4.652,24.231c-1.948,4.266-3.574,8.796-4.654,13.53c-4.66-2.791-9.606-4.909-14.565-6.526
	c-4.685-10.902-14.167-18.47-14.167-18.47s-6.37,5.549-10.927,13.831c-10.2-0.673-17.423,0.138-17.423,0.138
	s-0.498,7.243,0.61,17.395c-8.04,4.905-13.282,11.472-13.282,11.472s7.731,8.885,18.569,13.175
	c-6.844,4.678-11.192,10.121-11.192,10.121s12.634,14.508,28.238,15.389c24.661,21.926,65.66,8.805,65.66,8.805
	s40.999,13.121,65.66-8.805C296.494,162.931,309.128,148.423,309.128,148.423z"/>
<ellipse style="fill:#8460C8;" cx="220.824" cy="330.352" rx="63.8" ry="71.249"/>
<path style="opacity:0.08;enable-background:new    ;" d="M220.826,259.107c-28.01,0-51.786,20.171-60.365,48.208
	c9.978,7.224,21.869,11.436,34.646,11.436c7.617,0,14.919-1.497,21.692-4.231c0.963,32.446,21.34,59.393,48.575,66.815
	c11.868-12.939,19.247-30.992,19.247-50.979C284.619,291.006,256.059,259.107,220.826,259.107z"/>
<ellipse style="fill:#9C7CD3;" cx="145.301" cy="276.847" rx="63.8" ry="71.249"/>
<ellipse style="fill:#8460C8;" cx="209.09" cy="226.515" rx="63.8" ry="71.249"/>
<path style="opacity:0.1;fill:#FFFFFF;enable-background:new    ;" d="M221.371,156.596c-8.78,6.082-14.534,16.222-14.534,27.711
	c0,18.609,15.086,33.693,33.693,33.693c12.031,0,22.583-6.31,28.544-15.798C261.531,178.993,243.495,161.414,221.371,156.596z"/>
<ellipse style="fill:#8460C8;" cx="366.696" cy="248.607" rx="63.8" ry="71.249"/>
<ellipse style="fill:#9C7CD3;" cx="294.527" cy="291.13" rx="63.8" ry="71.249"/>
<g>
	<path style="opacity:0.1;fill:#FFFFFF;enable-background:new    ;" d="M300.108,220.172c-7.642,6.718-12.472,16.559-12.472,27.535
		c0,20.244,16.411,36.655,36.655,36.655c12.759,0,23.99-6.523,30.555-16.411C346.811,241.87,325.614,222.645,300.108,220.172z"/>
	<path style="opacity:0.1;fill:#FFFFFF;enable-background:new    ;" d="M384.613,180.226c-8.786,6.021-14.553,16.128-14.553,27.583
		c0,18.458,14.963,33.42,33.42,33.42c9.863,0,18.725-4.274,24.842-11.069C422.578,206.164,405.902,187.171,384.613,180.226z"/>
</g>
<path d="M366.932,169.429c-2.011-6.557-4.8-12.811-8.287-18.576c2.412-1.694,3.747-4.643,3.287-7.679
	c-0.024-0.161-0.327-2.108-1.101-5.043c7.757-0.683,13.518-2.63,13.872-2.752c3.624-1.245,5.839-4.902,5.267-8.691
	c-0.05-0.331-1.085-6.981-4.428-14.649c4.592-6.779,7.05-11.77,7.17-12.016c1.684-3.443,0.665-7.599-2.42-9.873
	c-0.22-0.163-4.71-3.453-11.921-7.343c-0.571-8.384-2.74-14.798-2.849-15.117c-1.243-3.625-4.899-5.84-8.692-5.271
	c-0.52,0.078-11.776,1.842-22.073,8.345c-1.429-0.244-2.849-0.451-4.257-0.618c0.125-0.753,0.241-1.512,0.347-2.276
	c10.065-7.982,15.545-19.029,15.796-19.54c1.683-3.443,0.665-7.598-2.42-9.873c-0.306-0.225-6.519-4.761-15.223-7.874
	c-1.736-8.199-3.69-13.572-3.788-13.836c-1.321-3.599-5.028-5.74-8.807-5.085c-0.277,0.048-5.908,1.042-13.876,3.638
	c-7.049-5.982-14.084-9.095-14.432-9.246c-3.516-1.537-7.62-0.339-9.76,2.841c-0.317,0.472-7.144,10.739-9.024,23.449
	c-0.609,0.474-1.208,0.953-1.798,1.438c-0.85-1.135-1.737-2.261-2.664-3.377c0.484-12.168-3.618-22.799-3.81-23.289
	c-1.399-3.568-5.152-5.627-8.91-4.891c-0.331,0.066-6.97,1.393-14.516,5.091c-6.975-4.301-12.069-6.543-12.321-6.653
	c-3.511-1.532-7.619-0.339-9.759,2.841c-0.153,0.227-3.246,4.851-6.82,12.217c-8.312,0.938-14.588,3.368-14.9,3.489
	c-3.568,1.398-5.626,5.145-4.892,8.906c0.072,0.368,1.265,6.329,4.553,13.39c-2.929,0.796-4.766,1.508-4.918,1.567
	c-3.571,1.399-5.63,5.151-4.893,8.914c0.057,0.291,0.851,4.225,2.878,9.434c-2.181,0.055-3.56,0.201-3.715,0.219
	c-3.809,0.427-6.768,3.516-7.032,7.341c-0.039,0.567-0.818,12.873,3.908,24.82c-0.291,0.715-0.57,1.429-0.838,2.144
	c-1.302-0.559-2.636-1.09-3.995-1.592c-5.666-10.779-14.532-17.936-14.944-18.263c-2.995-2.391-7.272-2.299-10.163,0.219
	c-0.254,0.221-5.34,4.692-10.027,11.667c-8.189-0.236-13.724,0.368-13.996,0.399c-3.809,0.427-6.768,3.516-7.032,7.34
	c-0.019,0.274-0.385,5.825,0.202,13.992c-6.729,4.969-10.951,10.21-11.159,10.473c-2.389,2.994-2.298,7.269,0.216,10.159
	c0.247,0.282,4.262,4.849,10.638,9.32c-2.138,2.154-3.374,3.689-3.476,3.816c-2.391,2.995-2.3,7.272,0.218,10.163
	c0.575,0.66,13.632,15.441,30.989,17.83c2.271,1.818,4.714,3.442,7.299,4.888c-4.742,6.377-8.585,13.591-11.353,21.397
	c-38.157,1.752-68.714,36.553-68.714,79.1c0,43.662,32.178,79.184,71.73,79.184c2.542,0,5.062-0.16,7.555-0.444
	c2.453,8.032,6.07,15.599,10.681,22.371c-12.796,14.693-20.036,34.294-20.036,54.854c0,43.662,32.178,79.184,71.729,79.184
	c30.012,0,56.838-20.864,67.197-51.48c39.545-0.008,71.715-35.527,71.715-79.184c0-12.444-2.645-24.66-7.679-35.673
	c4.709-5.464,8.716-11.662,11.87-18.428c2.779,0.359,5.575,0.558,8.366,0.558c39.552,0,71.73-35.522,71.73-79.184
	C438.429,205.03,406.377,169.568,366.932,169.429z M214.14,31.238c3.075-0.075,5.83-1.919,7.07-4.735
	c1.384-3.142,2.764-5.887,3.955-8.1c2.198,1.231,4.84,2.808,7.698,4.72c2.562,1.714,5.883,1.789,8.52,0.194
	c2.325-1.406,4.692-2.5,6.794-3.329c0.672,3.469,1.145,7.826,0.631,12.173c-0.268,2.266,0.453,4.538,1.979,6.236
	c3.359,3.738,6.157,7.604,8.317,11.487c1.236,2.222,3.461,3.717,5.984,4.022c2.521,0.307,5.041-0.618,6.768-2.481
	c2.719-2.932,5.943-5.732,9.582-8.324c1.952-1.39,3.172-3.59,3.317-5.982c0.289-4.757,1.817-9.349,3.347-12.867
	c2.172,1.468,4.613,3.359,6.839,5.645c2.185,2.242,5.483,2.992,8.423,1.91c3.368-1.239,6.434-2.184,8.947-2.88
	c0.654,2.526,1.368,5.652,1.98,9.188c0.533,3.085,2.831,5.568,5.866,6.34c3.092,0.786,5.951,1.954,8.308,3.101
	c-2.282,3.084-5.495,6.703-9.47,9.331c-2,1.323-3.295,3.478-3.522,5.865c-0.424,4.445-1.238,8.637-2.418,12.458
	c-0.749,2.428-0.29,5.07,1.236,7.103c1.526,2.034,3.939,3.204,6.475,3.172c4.439-0.071,9.189,0.419,14.107,1.46
	c2.231,0.473,4.561-0.04,6.39-1.405c3.507-2.62,7.517-4.389,10.857-5.541c0.333,2.236,0.57,4.832,0.514,7.549
	c-0.063,3.081,1.663,5.92,4.428,7.281c3.085,1.52,5.774,3.02,7.936,4.306c-1.321,2.139-3.008,4.706-5.037,7.475
	c-1.818,2.481-2.039,5.791-0.565,8.491c1.291,2.366,2.272,4.758,3.004,6.878c-3.384,0.506-7.595,0.791-11.78,0.172
	c-2.91-0.431-5.809,0.78-7.549,3.145c-1.742,2.364-2.035,5.495-0.764,8.142c0.838,1.745,1.516,3.463,2.057,5.03
	c-5.376,0.81-12.814,1.062-18.848-1.982c-1.598-0.807-3.423-1.049-5.175-0.687c-1.381,0.285-2.79,0.477-4.217,0.599
	c3.861-3.203,6.186-5.847,6.373-6.059c2.514-2.891,2.605-7.164,0.216-10.159c-0.208-0.262-4.43-5.504-11.159-10.473
	c0.588-8.166,0.221-13.718,0.202-13.992c-0.263-3.824-3.223-6.913-7.032-7.34c-0.273-0.032-5.809-0.637-13.996-0.399
	c-4.687-6.975-9.772-11.445-10.027-11.667c-2.891-2.518-7.167-2.61-10.163-0.219c-0.411,0.328-9.278,7.484-14.944,18.263
	c-1.361,0.503-2.693,1.034-3.996,1.592c-0.268-0.714-0.547-1.429-0.838-2.144c4.727-11.946,3.949-24.252,3.909-24.82
	c-0.265-3.824-3.223-6.913-7.032-7.341c-0.377-0.043-8.027-0.864-17.121,0.792c-5.601-6.232-9.982-9.909-10.198-10.088
	c-1.995-1.666-4.599-2.175-6.992-1.582c0.048-0.097,0.107-0.187,0.15-0.288c1.177-2.69,0.772-5.809-1.052-8.11
	c-2.63-3.319-4.489-7.107-5.742-10.289C208.883,31.649,211.445,31.302,214.14,31.238z M350.857,171.355
	c-20.612,5.101-38.23,20.02-48.002,41.145c-2.735-0.351-5.51-0.551-8.33-0.551c-5.031,0-9.94,0.581-14.681,1.674
	c-1.77-11.972-5.992-23.253-12.361-33.089c6.218-2.154,11.788-5.178,16.642-9.07c17.357-2.388,30.413-17.169,30.988-17.829
	c0.36-0.413,0.656-0.86,0.916-1.321c1.642-0.095,3.271-0.256,4.882-0.502c5.558,2.264,11.404,3.018,16.723,3.018
	c1.554,0,3.055-0.07,4.499-0.18C345.787,159.69,348.732,165.334,350.857,171.355z M206.804,55.207
	c0.068-0.005,0.133-0.022,0.201-0.03c-1.143,1.08-2.544,2.453-4.116,4.089c-0.555-1.149-1.044-2.273-1.461-3.329
	C203.055,55.623,204.878,55.353,206.804,55.207z M150.017,155.89c-6.749-0.381-13.067-4.32-17.314-7.707
	c1.253-1.088,2.698-2.236,4.297-3.329c2.424-1.656,3.736-4.516,3.41-7.433c-0.326-2.918-2.236-5.417-4.965-6.497
	c-3.938-1.559-7.441-3.911-10.118-6.039c1.693-1.47,3.739-3.05,6.041-4.454c2.626-1.603,4.09-4.578,3.756-7.636
	c-0.373-3.413-0.55-6.479-0.625-8.992c2.515-0.034,5.595,0.012,9.027,0.239c3.076,0.196,5.989-1.392,7.474-4.093
	c1.31-2.381,2.813-4.511,4.221-6.281c2.316,2.667,4.904,6.205,6.632,10.227c0.901,2.096,2.661,3.704,4.83,4.411
	c4.778,1.558,9.134,3.506,12.948,5.791c2.18,1.305,4.853,1.488,7.193,0.49c2.338-0.998,4.055-3.056,4.62-5.534
	c0.89-3.901,2.281-7.937,4.136-11.998c0.996-2.181,0.952-4.695-0.118-6.839c-2.128-4.264-3.101-9.005-3.535-12.816
	c2.614,0.185,5.675,0.603,8.746,1.469c3.014,0.849,6.245-0.152,8.25-2.557c2.297-2.757,4.48-5.108,6.308-6.967
	c1.829,1.86,4.01,4.21,6.308,6.967c2.005,2.406,5.237,3.406,8.25,2.557c3.07-0.865,6.13-1.283,8.744-1.469
	c-0.435,3.813-1.408,8.557-3.533,12.815c-1.071,2.145-1.114,4.66-0.118,6.84c1.854,4.061,3.246,8.098,4.136,11.998
	c0.565,2.478,2.283,4.536,4.622,5.534c2.338,0.997,5.012,0.815,7.193-0.491c3.812-2.283,8.168-4.231,12.947-5.79
	c2.169-0.708,3.93-2.315,4.83-4.411c1.729-4.023,4.317-7.561,6.633-10.227c1.405,1.768,2.909,3.899,4.219,6.282
	c1.486,2.699,4.392,4.287,7.474,4.093c3.432-0.226,6.507-0.273,9.027-0.239c-0.075,2.514-0.252,5.579-0.625,8.992
	c-0.334,3.058,1.129,6.034,3.756,7.636c2.3,1.403,4.346,2.985,6.041,4.454c-2.677,2.131-6.18,4.482-10.117,6.039
	c-2.73,1.08-4.64,3.579-4.965,6.497c-0.326,2.917,0.986,5.777,3.41,7.433c1.599,1.093,3.044,2.241,4.297,3.328
	c-4.251,3.39-10.567,7.326-17.314,7.708c-1.787,0.102-3.487,0.803-4.825,1.992c-5.053,4.493-11.461,7.589-19.067,9.254
	c-13.108-12.8-29.815-19.808-47.458-19.808c-16.678,0-32.032,6.335-44.228,16.914c-3.766-1.657-7.127-3.785-10.023-6.36
	C153.504,156.693,151.803,155.992,150.017,155.89z M209.093,163.199c14.424,0,28.118,6.228,38.556,17.534
	c9.529,10.32,15.424,23.837,16.903,38.487c-23.776,12.125-40.558,38.19-41.683,68.651c-4.484,1.294-9.098,1.955-13.777,1.955
	c-30.801,0-55.858-28.402-55.858-63.313C153.235,191.601,178.292,163.199,209.093,163.199z M223.76,304.021
	c4.108,27.577,21.161,50.386,44.023,60.567c-10.198,17.896-27.91,29.082-46.958,29.082c-23.866,0-44.626-16.854-52.519-41.775
	c7.27-2.712,14.133-6.73,20.39-11.984c10.476-8.798,18.659-20.814,23.438-34.287C216.06,305.443,219.941,304.9,223.76,304.021z
	 M145.299,340.163c-30.801,0-55.859-28.402-55.859-63.313c0-32.208,21.331-58.856,48.818-62.794
	c-0.584,4.06-0.895,8.219-0.895,12.456c0,38.589,25.141,70.801,58.287,77.769C186.47,326.067,167.142,340.163,145.299,340.163z
	 M215.229,496.128c-30.801,0-55.858-28.402-55.858-63.313c0-15.863,5.244-30.957,14.562-42.556c0.542,0.518,1.082,1.038,1.639,1.537
	c11.299,10.158,25.235,16.253,39.736,17.496c8.5,24.817,27.923,43.206,50.974,49.156
	C257.434,480.997,237.414,496.128,215.229,496.128z M282.412,444.649c-21.585,0-41.247-14.449-50.407-36.092
	c21.467-3.761,40.453-18.188,51.247-39.224c3.673,0.643,7.437,0.986,11.272,0.986c14.595,0,28.177-4.848,39.517-13.145
	c2.777,7.619,4.229,15.818,4.229,24.163C338.272,416.247,313.213,444.649,282.412,444.649z M294.525,354.448
	c-30.801,0-55.859-28.402-55.859-63.314c0-34.911,25.059-63.313,55.859-63.313s55.858,28.402,55.858,63.313
	C350.384,326.046,325.326,354.448,294.525,354.448z M366.699,311.921c-0.982,0-1.965-0.032-2.947-0.091
	c1.621-6.601,2.502-13.537,2.502-20.696c0-34.362-19.936-63.669-47.704-74.601c9.948-19.214,28.124-31.24,48.149-31.24
	c30.801,0,55.859,28.402,55.859,63.314C422.559,283.519,397.5,311.921,366.699,311.921z"/>
<g>
</g>
<g>
</g>
<g>
</g>
<g>
</g>
<g>
</g>
<g>
</g>
<g>
</g>
<g>
</g>
<g>
</g>
<g>
</g>
<g>
</g>
<g>
</g>
<g>
</g>
<g>
</g>
<g>
</g>
</svg>
