<svg data-name="Your Icons" viewBox="0 0 48 48" xmlns="http://www.w3.org/2000/svg"><path d="M41.62 22.21L39.28 18l1.57-3.2a3 3 0 00-1.38-4L29.7 6.27A2.86 2.86 0 0026 7.4L23.83 11l-2.19-3.6A2.91 2.91 0 0019.17 6a2.87 2.87 0 00-1.2.27l-9.73 4.55a3 3 0 00-1.39 4L8.43 18l-1.92 3.39a4 4 0 001.55 5.45l.33.18v4.83a6 6 0 013-3.23A5.91 5.91 0 0114 28a6 6 0 014.81 2.43 6.12 6.12 0 01.43.69c0 .07.09.14.13.22a6.69 6.69 0 01.39 1A5.7 5.7 0 0120 34a6 6 0 01-3.49 5.45l4.23 1.89a7.59 7.59 0 006.19 0l10-4.49a4 4 0 002.32-3.62v-6.29l1.12-.61a3 3 0 001.25-4.12zm-17.8 3.71zm1-.52V13.48l12.06 5.76zm1-13.81l1.91-3.15a.88.88 0 01.76-.44.86.86 0 01.36.08l9.74 4.55a.94.94 0 01.48.54A1.06 1.06 0 0139 14l-1.63 3.3-11.54-5.56zM8.6 13.17a.94.94 0 01.48-.54l9.74-4.55a.85.85 0 01.35-.08.88.88 0 01.76.44l1.9 3.15v.15l-11.55 5.52L8.65 14a1 1 0 01-.05-.83zm14.23.31v11.93l-12.06-6.17zM14 26a7.94 7.94 0 00-2.53.41L9 25.08a1.9 1.9 0 01-.94-1.17 2 2 0 01.18-1.55l.94-1.68 12.63 6.46v.29l-.91 1.88a2.39 2.39 0 01-.21.34A8 8 0 0014 26zm6.28 13A8 8 0 0022 34a7.62 7.62 0 00-.32-2.21 1.21 1.21 0 00-.05-.18 4.12 4.12 0 001.15-1.42v-.12 9.83a5.32 5.32 0 01-1.27-.39zm17-5.72A1.94 1.94 0 0136.14 35l-10 4.49a5.26 5.26 0 01-1.28.39v-9.81a4 4 0 003.31 2.31h.29a3.71 3.71 0 001.85-.49l7-3.83zM40 24a1 1 0 01-.47.57h-.05l-10.21 5.57a1.75 1.75 0 01-.86.22 1.84 1.84 0 01-1.66-1.06l-.92-1.87v-.29l12.64-6.46 1.4 2.51A1.06 1.06 0 0140 24z" fill="#939598"/><path d="M14 26a8 8 0 108 8 8 8 0 00-8-8z" fill="#0ee957"/><path d="M16.5 33H15v-1.5a1 1 0 00-2 0V33h-1.5a1 1 0 000 2H13v1.5a1 1 0 002 0V35h1.5a1 1 0 000-2z" fill="#ffffff"/></svg>